<svg xmlns="http://www.w3.org/2000/svg" viewBox="0 0 733 93"><style>.st0{fill:#5c2d91}.st1{opacity:.1;enable-background:new}.st1,.st2{fill:#fff}</style><g id="Layer_1"><circle class="st0" cx="47" cy="44.5" r="32"/><path class="st1" d="M24.8 21.5c-13.2 11.8-14.4 32-2.6 45.2s32 14.4 45.2 2.6c.9-.8 1.8-1.7 2.6-2.6L24.8 21.5z"/><path class="st2" d="M22.4 53.8c-.4 0-.7-.1-1-.4-.3-.3-.4-.6-.4-1s.1-.7.4-1c.3-.3.6-.4 1-.4s.7.2 1 .4c.3.3.4.6.4 1s-.1.7-.4 1c-.3.2-.6.4-1 .4zm19.9-.3h-2.6L30.3 39c-.2-.4-.4-.7-.6-1.1h-.1c.1.8.1 1.7.1 2.5v13.2h-2.1V35.3h2.8l9.1 14.3c.4.6.6 1 .7 1.2-.1-.9-.1-1.8-.1-2.7V35.3h2.1v18.2zm14.4 0H47V35.3h9.2v1.9h-7.1v6.1h6.6v1.9h-6.6v6.3h7.5l.1 2zM71 37.2h-5.3v16.3h-2.1V37.2h-5.2v-1.9H71v1.9z"/><circle cx="413.9" cy="45.2" r="32" fill="#05930c"/><path class="st1" d="M391.7 22.2c-13.2 11.8-14.4 32-2.6 45.2 11.8 13.2 32 14.4 45.2 2.6.9-.8 1.8-1.7 2.6-2.6l-45.2-45.2z"/><path class="st2" d="M413 56.8c-2.9 1.1-5.3 1.6-7.7 1.5-3.2.1-6.4-1.1-8.6-3.5-2.2-2.5-3.4-5.8-3.2-9.1-.2-3.6 1.2-7.1 3.6-9.8 2.4-2.5 5.8-3.8 9.3-3.7 2-.1 4 .3 5.6 1v3.2c-1.5-1-3.6-1.5-5.7-1.5-2.6-.1-5.2 1-7 2.9-1.9 2.1-2.8 4.9-2.7 7.8-.1 2.7.8 5.3 2.5 7.3 1.7 1.8 4.1 2.8 6.6 2.7 2.3.1 4.6-.5 7.2-1.7v2.9zm21.7-17.6l-.4 2h-4.6l-1 5h4.9l-.5 2-4.8 1-1.5 6h-2.2l1.5-6h-4.4l-1.5 6H418l1.5-6h-4.7l.4-2h4.6l1.1-6H416l.4-2h4.9l1.5-7h2.2l-1.5 7h4.4l1.5-7h2.1l-1.5 7h4.7zm-7.4 2h-4.2l-1.1 5h4.2l1.1-5z"/><circle cx="506.9" cy="45.2" r="32" fill="#721481"/><path class="st1" d="M529.9 67.4c-11.8 13.2-32 14.4-45.2 2.6s-14.4-32-2.6-45.2c.8-.9 1.7-1.8 2.6-2.6l45.2 45.2z"/><path class="st2" d="M504.3 35.2H495v9h9v3h-10v11h-3v-26h13.3v3zm22 4l-.4 2h-4.6l-1.1 5h4.9l-.5 2-4.8 1-1.5 6h-2.2l1.5-6h-4.4l-1.5 6h-2.2l1.5-6h-4.6l.4-2h4.6l1.1-6h-4.9l.4-2h4.9l1.5-7h2.2l-1.5 7h4.4l1.5-7h2.1l-1.5 7h4.7zm-7.3 2h-4.2l-1.1 5h4.2l1.1-5z"/><circle class="st0" cx="138.9" cy="44.7" r="32"/><path class="st1" d="M116.7 21.7c-13.2 11.8-14.4 32-2.6 45.2s32 14.4 45.2 2.6c.9-.8 1.8-1.7 2.6-2.6l-45.2-45.2z"/><path class="st2" d="M114.3 49.9c-.4 0-.7-.1-1-.4-.3-.3-.4-.6-.4-1s.1-.7.4-1c.3-.3.6-.4 1-.4s.7.2 1 .4c.3.3.4.6.4 1s-.1.7-.4 1c-.3.3-.6.4-1 .4zm19.7 0h-2.7l-8.8-14.8c-.2-.4-.4-.8-.5-1.2h-.1c.1.8.1 1.7.1 2.6v13.4h-2v-19h2.6l8.7 14.7c.4.6.6 1 .7 1.3-.1-.9-.1-1.8-.1-2.8V31.9h2v18zm15 0h-10v-18h9v2h-7v5h7v2h-7v7h8v2zm14-16h-5v16h-2v-16h-6v-2h13v2z"/><circle class="st0" cx="230.9" cy="45.2" r="32"/><path class="st1" d="M208.7 22.2c-13.2 11.8-14.4 32-2.6 45.2s32 14.4 45.2 2.6c.9-.8 1.8-1.7 2.6-2.6l-45.2-45.2z"/><path class="st2" d="M206.3 50.5c-.4 0-.7-.1-1-.4-.3-.3-.4-.6-.4-1s.1-.7.4-1c.3-.3.6-.4 1-.4s.7.2 1 .4c.3.3.4.6.4 1s-.1.7-.4 1c-.3.2-.6.4-1 .4zm19.7-.3h-2.7l-8.8-14.8c-.2-.4-.4-.8-.5-1.2h-.1c.1.8.1 1.7.1 2.6v13.4h-2v-18h2.6l8.7 14.7c.4.6.6 1 .7 1.3-.1-.9-.1-1.8-.1-2.8V32.2h2v18zm15 0h-10v-18h9v2h-7v6h7v2h-7v6h8v2zm14-16h-5v16h-2v-16h-6v-2h13v2z"/><circle cx="598.2" cy="44.7" r="32" fill="#004e8c"/><path class="st1" d="M576 21.7c-13.2 11.8-14.4 32-2.6 45.2s32 14.4 45.2 2.6c.9-.8 1.8-1.7 2.6-2.6L576 21.7z"/><path class="st2" d="M599.5 31.8l-9.2 25h-3.4l-9.1-25h3.3l6.9 19.8c.2.7.4 1.5.5 2.2h.2c.1-.8.3-1.5.6-2.3l7-19.7h3.2zm3.5 24.9v-25h7.3c1.9-.1 3.7.5 5.2 1.6 1.3 1 2 2.5 1.9 4.1 0 1.3-.4 2.6-1.2 3.7-.8 1.1-1.9 1.8-3.2 2.2v.1c1.6.1 3 .8 4.1 1.9 1.1 1.1 1.6 2.7 1.5 4.2.1 2-.8 3.9-2.3 5.2-1.7 1.4-3.8 2.1-5.9 2H603zm3-21.9v8h2.9c1.3.1 2.7-.4 3.7-1.2.9-.8 1.4-2 1.4-3.2 0-2.4-1.6-3.6-4.7-3.6H606zm0 10.9v9h4c1.4.1 2.8-.4 4-1.2 1-.8 1.5-2.1 1.4-3.3 0-3-2-4.4-6-4.4l-3.4-.1z"/><path d="M308.9 14.2c-1.9 0-3.7 1-4.6 2.7l-14.6 25.4c-.9 1.7-.9 3.7 0 5.4L304.3 73c1 1.6 2.7 2.6 4.6 2.7h29.2c1.9 0 3.7-1 4.6-2.7l14.6-25.3c.9-1.7.9-3.7 0-5.4l-14.6-25.4c-1-1.6-2.7-2.6-4.6-2.7h-29.2zm.5 15.1h5.1c.2 0 .4.1.5.3l8.4 15c0 .1.1.2.1.2 0-.1 0-.2.1-.2l8.4-15c.1-.2.3-.3.6-.3h5c.4 0 .7.4.6.7 0 .1 0 .1-.1.2l-8.2 14.7 8.2 14.6c.2.3 0 .7-.3.9-.1 0-.2.1-.2.1h-5c-.2 0-.5-.1-.6-.3l-8.4-15c0-.1-.1-.2-.1-.2 0 .1 0 .2-.1.2l-8.4 15c-.1.2-.3.3-.5.3h-4.9c-.4 0-.7-.4-.6-.7 0-.1 0-.2.1-.2l8.2-14.6-8.2-14.7c-.2-.3 0-.7.3-.9-.1-.1-.1-.1 0-.1z" fill="#3498db"/><circle cx="690.2" cy="44.7" r="32" fill="#252525"/><path class="st1" d="M668 21.7c-13.2 11.8-14.4 32-2.6 45.2s32 14.4 45.2 2.6c.9-.8 1.8-1.7 2.6-2.6L668 21.7z"/><path class="st2" d="M692.2 44.3l7.1-12.3 3.4 12.3-3.4 12.3-7.1-12.3zm-3.4 2l7.1 12.3-12.4-3.2-8.9-9.1h14.2zm7.1-16.3l-7.1 12.3h-14.2l8.9-9.1 12.4-3.2zM706 40.1L701.7 24l-16.2 4.3-2.4 4.2h-4.9l-11.8 11.8 11.8 11.8h4.9l2.4 4.2 16.2 4.3 4.3-16.1-2.5-4.2 2.5-4.2m-493.3 20h-3v3h-.5v-6.4h4v.5h-3.4v2.5h3v.4zm3.7-1.3h-.4c-.3 0-.6.1-.8.3-.2.2-.4.4-.5.8v3.3h-.5v-4.8h.5v.8c.3-.6.7-.8 1.3-.8.1 0 .3 0 .3.1l.1.3zm3.9 4.3c-.1-.1-.1-.4-.1-.7-.2.2-.4.4-.7.6-.3.1-.6.2-.9.2-.5 0-.8-.1-1.1-.4s-.4-.6-.4-1c0-.5.2-.8.6-1.1.4-.3.9-.4 1.6-.4h1v-.5c0-.3-.1-.6-.3-.8-.2-.2-.5-.3-.9-.3s-.7.1-.9.3-.4.4-.4.7h-.5c0-.4.2-.7.5-1 .4-.3.8-.4 1.3-.4s.9.1 1.3.4c.3.3.5.6.5 1.1V62c0 .5 0 .8.1 1v.1h-.7zm-1.7-.4c.4 0 .7-.1.9-.3.3-.2.5-.4.6-.7v-1h-.9c-.5 0-.9.1-1.2.3-.3.2-.4.4-.4.8 0 .3.1.5.3.7.1.1.4.2.7.2zm4.2-4.4v.8c.2-.3.4-.5.7-.6s.6-.2.9-.2c.8 0 1.2.3 1.4.9.2-.3.4-.5.7-.7.3-.2.6-.2.9-.2 1 0 1.5.6 1.6 1.7v3.2h-.5V60c0-.4-.1-.7-.3-.9-.2-.2-.5-.3-.9-.3s-.7.1-1 .4-.4.5-.4.9v3.1h-.5V60c0-.4-.1-.7-.3-.9-.2-.2-.5-.3-.9-.3-.3 0-.6.1-.9.3-.2.2-.4.5-.5.8v3.3h-.5v-4.8h.5zm9.6 4.9c-.4 0-.8-.1-1.1-.3-.3-.2-.6-.5-.8-.8-.2-.4-.3-.8-.3-1.2v-.2c0-.5.1-.9.3-1.2s.4-.7.7-.9.7-.3 1-.3c.6 0 1 .2 1.4.6.3.4.5.9.5 1.6v.3h-3.4v.1c0 .5.2 1 .5 1.3.3.4.7.5 1.2.5.3 0 .5-.1.7-.2.2-.1.4-.3.6-.5l.3.3c-.3.6-.9.9-1.6.9zm-.1-4.5c-.4 0-.7.1-1 .4-.3.3-.4.7-.5 1.2h2.9v-.1c0-.5-.1-.8-.4-1.1s-.6-.4-1-.4zm4.2 3.3l.1.4.1-.4 1.1-3.6h.4l1.1 3.6.1.5.1-.5 1-3.6h.5l-1.4 4.8h-.4l-1.2-3.8-.1-.3-.1.3-1.2 3.8h-.4l-1.4-4.8h.5l1.2 3.6zm5.6-1.4c0-.5.1-.9.3-1.2s.4-.7.8-.9c.3-.2.7-.3 1.1-.3.6 0 1.1.2 1.5.7.4.4.6 1 .6 1.8v.1c0 .5-.1.9-.3 1.2-.2.4-.4.7-.7.9s-.7.3-1.1.3c-.6 0-1.1-.2-1.5-.7-.4-.4-.6-1-.6-1.8v-.1zm.5.2c0 .6.1 1 .4 1.4.3.4.7.5 1.2.5s.9-.2 1.2-.5c.3-.4.4-.8.4-1.4v-.1c0-.4-.1-.7-.2-1s-.3-.5-.6-.7c-.2-.2-.5-.2-.8-.2-.5 0-.9.2-1.1.6s-.5.7-.5 1.4zm7.3-2h-.4c-.3 0-.6.1-.8.3-.2.2-.4.4-.5.8v3.3h-.5v-4.8h.5v.8c.3-.6.7-.8 1.3-.8.1 0 .3 0 .3.1l.1.3zm2.1 1.9l-.6.6v1.8h-.5v-6.8h.5v4.3l.5-.5 1.8-1.8h.7l-2 2 2.2 2.8h-.6l-2-2.4zm-119 .1c-.1.9-.4 1.6-1 2.1s-1.3.7-2.2.7c-1 0-1.8-.4-2.4-1.1s-.9-1.7-.9-2.9v-.8c0-.8.1-1.5.4-2.1s.7-1.1 1.2-1.4 1.1-.5 1.8-.5c.9 0 1.6.3 2.2.8s.9 1.2 1 2.1H132c-.1-.7-.3-1.2-.6-1.5s-.8-.5-1.4-.5c-.7 0-1.3.3-1.7.8-.4.5-.6 1.3-.6 2.3v.8c0 .9.2 1.7.6 2.2s.9.8 1.6.8c.6 0 1.1-.1 1.4-.4s.6-.8.7-1.5h1zm1.4-.5c0-.6.1-1.2.4-1.7s.6-.9 1-1.1.9-.4 1.5-.4c.9 0 1.6.3 2.1.9s.8 1.4.8 2.4v.1c0 .6-.1 1.2-.4 1.7s-.6.9-1 1.1-.9.4-1.5.4c-.9 0-1.6-.3-2.1-.9s-.8-1.5-.8-2.5zm1.1.1c0 .7.2 1.3.5 1.7s.8.6 1.3.6c.6 0 1-.2 1.3-.6s.5-1 .5-1.8c0-.7-.2-1.3-.5-1.7s-.8-.6-1.3-.6-1 .2-1.3.6-.5 1-.5 1.8zm9.4-2.3h-.5c-.7 0-1.2.3-1.4.9v4.5h-1.1v-6.3h1.1v.7c.4-.6.9-.8 1.5-.8.2 0 .4 0 .5.1v.9zm3.8 5.5c-.9 0-1.6-.3-2.1-.8s-.8-1.3-.8-2.3v-.2c0-.6.1-1.2.4-1.7s.6-.9 1-1.2.9-.4 1.4-.4c.8 0 1.5.3 1.9.8s.7 1.3.7 2.3v.5h-4.3c0 .6.2 1.1.5 1.5s.8.6 1.3.6c.4 0 .7-.1 1-.2s.5-.4.7-.6l.7.5c-.5.8-1.3 1.2-2.4 1.2zm-.1-5.7c-.4 0-.8.2-1.1.5s-.5.8-.6 1.3h3.2v-.1c0-.6-.2-1-.4-1.3s-.7-.4-1.1-.4z"/></g></svg>